<svg data-v-fde0c5aa="" xmlns="http://www.w3.org/2000/svg" viewBox="0 0 300 300" class="iconLeftSlogan"><!----><defs data-v-fde0c5aa=""><!----></defs><rect data-v-fde0c5aa="" fill="transparent" x="0" y="0" width="300px" height="300px" class="logo-background-square"></rect><defs data-v-fde0c5aa=""><!----></defs><g data-v-fde0c5aa="" id="6f9ad471-57f1-4bd5-b2a1-7401bcf62fd4" fill="#000000" transform="matrix(3.6373619763073877,0,0,3.6373619763073877,108.21288964579993,104.37204003177513)"><path d="M3.50 13.20L3.50 13.72L0.29 13.72L0.29 13.20L1.44 12.91L1.68 5.95L0.55 5.67L0.55 5.15L3.23 5.15L5.60 11.91L7.85 5.15L10.64 5.15L10.64 5.67L9.39 5.96L9.67 12.91L10.93 13.20L10.93 13.72L7.11 13.72L7.11 13.20L8.34 12.91L8.12 6.92L5.77 13.72L4.97 13.86L2.48 6.90L2.27 12.91L3.50 13.20ZM19.29 13.55Q18.49 13.78 17.79 13.78L17.79 13.78Q17.43 13.78 17.12 13.58Q16.80 13.38 16.74 13.05L16.74 13.05Q16.02 13.43 15.41 13.64Q14.80 13.86 14.17 13.86L14.17 13.86Q13.30 13.86 12.91 13.39Q12.52 12.92 12.52 12.21L12.52 12.21L12.52 7.81L11.33 7.67L11.33 7.24L13.47 6.71L13.92 6.71L13.92 11.96Q13.92 12.46 14.13 12.68Q14.35 12.91 14.97 12.91L14.97 12.91Q15.30 12.91 15.79 12.78Q16.28 12.64 16.67 12.46L16.67 12.46L16.67 7.81L15.47 7.67L15.47 7.24L17.61 6.71L18.07 6.71L18.07 12.80L19.29 13.09L19.29 13.55ZM22.74 7.49Q22.11 7.49 21.76 7.74Q21.41 7.98 21.41 8.41L21.41 8.41Q21.41 8.82 21.60 9.04Q21.80 9.25 22.30 9.44L22.30 9.44L23.49 9.84Q24.35 10.14 24.68 10.56Q25.00 10.98 25.00 11.72L25.00 11.72Q25.00 12.71 24.31 13.29Q23.62 13.86 22.32 13.86L22.32 13.86Q21.81 13.86 21.22 13.76Q20.62 13.66 20.16 13.50L20.16 13.50L20.36 11.77L20.90 11.77L21.20 12.94Q21.76 13.10 22.34 13.10L22.34 13.10Q23.79 13.10 23.79 11.97L23.79 11.97Q23.79 11.63 23.56 11.42Q23.34 11.20 22.74 10.99L22.74 10.99L21.66 10.63Q20.92 10.35 20.58 9.91Q20.24 9.48 20.24 8.76L20.24 8.76Q20.24 7.78 20.87 7.25Q21.50 6.71 22.76 6.71L22.76 6.71Q23.76 6.71 24.74 7.14L24.74 7.14L24.53 8.72L24.00 8.72L23.70 7.70Q23.52 7.62 23.25 7.55Q22.97 7.49 22.74 7.49L22.74 7.49ZM27.86 5.66Q27.47 5.66 27.19 5.40Q26.91 5.14 26.91 4.76L26.91 4.76Q26.91 4.38 27.20 4.10Q27.48 3.82 27.86 3.82L27.86 3.82Q28.22 3.82 28.51 4.10Q28.80 4.38 28.80 4.76L28.80 4.76Q28.80 5.14 28.52 5.40Q28.24 5.66 27.86 5.66L27.86 5.66ZM29.76 13.72L25.97 13.72L25.97 13.19L27.17 12.91L27.17 7.81L25.97 7.67L25.97 7.24L28.13 6.71L28.56 6.71L28.56 12.91L29.76 13.19L29.76 13.72ZM30.45 13.72L30.45 13.23L31.64 12.91L31.64 7.63L30.52 7.63L30.52 7.15L31.64 6.79Q31.64 5.26 32.42 4.40Q33.21 3.53 34.52 3.53L34.52 3.53Q34.87 3.53 35.30 3.61Q35.73 3.70 35.91 3.81L35.91 3.81L35.70 5.54L35.07 5.54L34.87 4.58Q34.58 4.44 34.23 4.44L34.23 4.44Q33.54 4.44 33.29 4.91Q33.04 5.38 33.04 6.34L33.04 6.34L33.04 6.85L35.14 6.85L35.14 7.76L33.04 7.63L33.04 12.89L34.66 13.22L34.66 13.72L30.45 13.72ZM37.72 6.85L37.72 7.29L36.97 7.62L38.53 11.79L39.91 7.63L38.92 7.36L38.92 6.85L41.73 6.85L41.73 7.35L40.84 7.63L38.84 13.24Q38.32 14.67 37.75 15.37Q37.18 16.06 36.33 16.06L36.33 16.06Q35.71 16.06 35.06 15.71L35.06 15.71L35.15 15.20L35.84 15.20Q36.57 15.20 37.00 14.79Q37.42 14.38 37.83 13.41L37.83 13.41L35.48 7.62L34.69 7.29L34.69 6.85L37.72 6.85Z"></path></g><defs data-v-fde0c5aa=""><linearGradient data-v-fde0c5aa="" gradientTransform="rotate(25)" id="6c581e59-3e51-4df2-ac7d-8fdaca0a9f8a" x1="0%" y1="0%" x2="100%" y2="0%"><stop data-v-fde0c5aa="" offset="0%" stop-color="#563F33" stop-opacity="1"></stop><stop data-v-fde0c5aa="" offset="100%" stop-color="#A3A1A1" stop-opacity="1"></stop></linearGradient></defs><g data-v-fde0c5aa="" id="2e38fcf9-de9d-4d19-9620-060862873b4c" stroke="none" fill="url(#6c581e59-3e51-4df2-ac7d-8fdaca0a9f8a)" transform="matrix(0.9111999755224705,0,0,0.9111999755224705,23.890936565549644,104.5305958312756)"><path d="M67.988 14.273C61.139 10.895 57.3 5.113 55.97 2.793v-1.01h-8.693v68.362c-3.573-1.601-7.943-2.247-12.516-1.603-10.511 1.485-18.108 9.231-16.969 17.302 1.14 8.071 10.584 13.412 21.096 11.926 9.929-1.401 17.255-8.391 17.075-15.963h.007V20.133c1.672 1.244 7.01 1.216 12.558 6.764 6.795 6.796 4.32 19.364 4.32 19.364 10.938-8.316 7.507-25.887-4.86-31.988z"></path></g><defs data-v-fde0c5aa=""><!----></defs><g data-v-fde0c5aa="" id="f01acfc8-ac4b-4f54-95c0-c3f29aa38f50" fill="#000000" transform="matrix(0.6048161245675334,0,0,0.6048161245675334,109.14676147026239,171.5179584920135)"><path d="M7.71 2.21L0.20 2.21L0.20 3.22L3.43 3.22L3.43 11.48L4.48 11.48L4.48 3.22L7.71 3.22ZM22.48 2.21L22.48 6.33L17.09 6.33L17.09 2.21L16.04 2.21L16.04 11.48L17.09 11.48L17.09 7.35L22.48 7.35L22.48 11.48L23.53 11.48L23.53 2.21ZM39.62 3.22L39.62 2.21L32.80 2.21L32.80 11.48L39.62 11.48L39.62 10.47L33.85 10.47L33.85 7.35L39.00 7.35L39.00 6.33L33.85 6.33L33.85 3.22ZM66.09 2.21L62.83 6.61L59.51 2.21L58.30 2.21L58.30 11.48L59.35 11.48L59.35 3.81L62.83 8.22L66.26 3.81L66.26 11.48L67.31 11.48L67.31 2.21ZM83.30 2.21L83.30 7.52C83.30 9.67 81.87 10.57 80.40 10.57C78.93 10.57 77.52 9.67 77.52 7.52L77.52 2.21L76.47 2.21L76.47 7.49C76.47 9.95 78.09 11.59 80.40 11.59C82.73 11.59 84.35 9.94 84.35 7.49L84.35 2.21ZM94.12 4.65C94.12 4.03 94.49 3.08 96.59 3.08C98.28 3.08 99.06 3.82 99.18 4.75L100.25 4.75C100.17 3.36 99.05 2.10 96.59 2.10C94.26 2.10 93.10 3.15 93.10 4.66C93.10 7.84 99.44 6.69 99.44 8.96C99.44 10.05 98.46 10.60 96.89 10.60C95.28 10.60 93.98 10.05 93.91 8.71L92.82 8.71C92.96 10.37 94.08 11.59 96.82 11.59C99.11 11.59 100.49 10.64 100.49 8.92C100.49 5.68 94.12 6.80 94.12 4.65ZM110.17 2.21L109.12 2.21L109.12 11.48L110.17 11.48ZM123.41 10.57C121.16 10.57 119.90 8.93 119.90 6.85C119.90 4.76 121.16 3.12 123.41 3.12C124.94 3.12 125.94 3.85 126.42 4.98L127.53 4.98C126.94 3.29 125.43 2.10 123.33 2.10C120.54 2.10 118.85 4.21 118.85 6.85C118.85 9.48 120.54 11.59 123.33 11.59C125.43 11.59 126.94 10.40 127.53 8.71L126.42 8.71C125.94 9.84 124.94 10.57 123.41 10.57ZM151.65 3.70L154.15 11.48L155.34 11.48L158.23 2.21L157.12 2.21L154.74 10.00L152.25 2.21L151.05 2.21L148.55 10.00L146.17 2.21L145.07 2.21L147.95 11.48L149.14 11.48ZM173.31 3.22L173.31 2.21L166.49 2.21L166.49 11.48L173.31 11.48L173.31 10.47L167.54 10.47L167.54 7.35L172.69 7.35L172.69 6.33L167.54 6.33L167.54 3.22ZM187.84 6.75C188.50 6.45 189.08 5.85 189.08 4.66C189.08 3.54 188.34 2.21 186.16 2.21L182.00 2.21L182.00 11.48L186.40 11.48C188.51 11.48 189.56 10.43 189.56 9.04C189.56 7.66 188.62 7 187.84 6.75ZM183.05 3.21L186.27 3.21C187.54 3.21 188.03 3.98 188.03 4.75C188.03 5.88 187.12 6.36 186.16 6.36L183.05 6.36ZM186.51 10.49L183.05 10.49L183.05 7.31L186.40 7.31C187.87 7.31 188.51 8.09 188.51 8.96C188.51 9.93 187.78 10.49 186.51 10.49ZM197.88 7.85L201.38 7.85L201.38 6.83L197.88 6.83ZM214.16 2.21L212.84 2.21L208.91 11.48L210.07 11.48L211.20 8.79L215.80 8.79L216.93 11.48L218.09 11.48ZM211.61 7.83L213.50 3.30L215.39 7.83ZM227.32 8.18L230.44 8.18C232.41 8.18 233.63 7.03 233.63 5.19C233.63 3.37 232.41 2.21 230.44 2.21L226.27 2.21L226.27 11.48L227.32 11.48ZM230.37 3.21C231.83 3.21 232.58 3.96 232.58 5.19C232.58 6.44 231.83 7.20 230.37 7.20L227.32 7.20L227.32 3.21ZM243.11 8.18L246.23 8.18C248.21 8.18 249.42 7.03 249.42 5.19C249.42 3.37 248.21 2.21 246.23 2.21L242.06 2.21L242.06 11.48L243.11 11.48ZM246.16 3.21C247.62 3.21 248.37 3.96 248.37 5.19C248.37 6.44 247.62 7.20 246.16 7.20L243.11 7.20L243.11 3.21Z"></path></g></svg>